# xmcd
#
# Track frame offsets:
#	150
#	16586
#	26193
#	41113
#	57994
#	71877
#	86684
#	103022
#	117731
#	134310
#	152194
#	166012
#	180964
#	199097
#	214358
#	230487
#	248506
#	260636
#
# Disc length: 3715 seconds
#
# Revision: 4
# Processed by: cddbd v1.5.1PL0 Copyright (c) Steve Scherf et al.
# Submitted via: audiograbber 1.83.01
#
DISCID=000e8112
DTITLE=Various Artist - Top Hits Usa Rc64
DYEAR=2001
DGENRE=Country
TTITLE0=Faith Hill - If My Heart Had Wings (Single Remix)
TTITLE1=George Strait - Don't Make Me Come Over There And Love You
TTITLE2=Andy Griggs - You Made Me That Way
TTITLE3=Toby Keith - You Shouldn't Kiss Me Like This
TTITLE4=Darryl Worley - A Good Day To Run
TTITLE5=Alabama - When It All Goes South (Single Version)
TTITLE6=Jessica Andrews - Who I Am (Radio Edit)
TTITLE7=Garth Brooks - Wild Horses (Remix)
TTITLE8=Diamond Rio - One More Day
TTITLE9=Chalee Tennison - Go Back
TTITLE10=Montgomery Gentry f Charlie Daniels - All Night Long  (Radio Edit) 
TTITLE11=Warren Brothers - Move On
TTITLE12=She Daisy - Lucky 4 You
TTITLE13=Billy Ray Cyrus - Burn Down The Trailer Park
TTITLE14=Sawyer Brown - Lookin' For Love
TTITLE15=Carolyn Dawn Johnson - Georgia (Single Edit)
TTITLE16=Eric Heatherly - Wrong Five O'Clock
TTITLE17=Billy Gilman - Oklahoma (Radio Edit)
EXTD=YEAR: 2001 ID3G:   2
EXTT0=
EXTT1=
EXTT2=
EXTT3=
EXTT4=
EXTT5=
EXTT6=
EXTT7=
EXTT8=
EXTT9=
EXTT10=
EXTT11=
EXTT12=
EXTT13=
EXTT14=
EXTT15=
EXTT16=
EXTT17=
PLAYORDER=
